<?xml version="1.0" encoding="UTF-8" standalone="no" ?>
<!DOCTYPE svg PUBLIC "-//W3C//DTD SVG 1.1//EN" "http://www.w3.org/Graphics/SVG/1.1/DTD/svg11.dtd">
<svg xmlns="http://www.w3.org/2000/svg" xmlns:xlink="http://www.w3.org/1999/xlink" version="1.1" width="390" height="150" viewBox="45 180 390 150" xml:space="preserve">
<desc>Created with Fabric.js 3.6.3</desc>
<defs>
</defs>
<g transform="matrix(1.1802759027282475 -2.8908e-16 2.8908e-16 1.1802759027282475 112.99574426629009 251)"  >
<linearGradient id="SVGID_6009" gradientUnits="userSpaceOnUse" gradientTransform="matrix(1 0 0 1 -0.08400000000000318 -0.08400000000000318)"  x1="0" y1="0" x2="100.167" y2="100.167">
<stop offset="0%" style="stop-color:rgb(20,125,108);stop-opacity: 1"/>
<stop offset="100%" style="stop-color:rgb(22,149,163);stop-opacity: 1"/>
</linearGradient>
<path style="stroke: none; stroke-width: 0; stroke-dasharray: none; stroke-linecap: butt; stroke-dashoffset: 0; stroke-linejoin: miter; stroke-miterlimit: 4; fill: url(#SVGID_6009); fill-rule: nonzero; opacity: 0.27;"  transform=" translate(-49.9995, -49.9995)" d="M 50 100.083 C 22.383 100.083 -0.084 77.615 -0.084 50 C -0.084 22.383 22.383 -0.084 50 -0.084 c 27.616 0 50.083 22.468 50.083 50.084 C 100.083 77.615 77.615 100.083 50 100.083 z" stroke-linecap="round" />
</g>
<g transform="matrix(1.0348564097881252 -2.5347e-16 2.5347e-16 1.0348564097881252 109.99574426628989 251)"  >
<linearGradient id="SVGID_6010" gradientUnits="userSpaceOnUse" gradientTransform="matrix(1 0 0 1 -0.08400000000000318 -0.08400000000000318)"  x1="0" y1="0" x2="100.167" y2="100.167">
<stop offset="0%" style="stop-color:rgb(20,125,108);stop-opacity: 1"/>
<stop offset="100%" style="stop-color:rgb(22,149,163);stop-opacity: 1"/>
</linearGradient>
<path style="stroke: none; stroke-width: 0; stroke-dasharray: none; stroke-linecap: butt; stroke-dashoffset: 0; stroke-linejoin: miter; stroke-miterlimit: 4; fill: url(#SVGID_6010); fill-rule: nonzero; opacity: 0.25;"  transform=" translate(-49.9995, -49.9995)" d="M 50 100.083 C 22.383 100.083 -0.084 77.615 -0.084 50 C -0.084 22.383 22.383 -0.084 50 -0.084 c 27.616 0 50.083 22.468 50.083 50.084 C 100.083 77.615 77.615 100.083 50 100.083 z" stroke-linecap="round" />
</g>
<g transform="matrix(0.9085253200526145 -2.2252e-16 2.2252e-16 0.9085253200526145 112.99574426628978 251)"  >
<path style="stroke: none; stroke-width: 0; stroke-dasharray: none; stroke-linecap: butt; stroke-dashoffset: 0; stroke-linejoin: miter; stroke-miterlimit: 4; fill: rgb(20,125,108); fill-rule: nonzero; opacity: 1;"  transform=" translate(-49.9995, -49.9995)" d="M 50 100.083 C 22.383 100.083 -0.084 77.615 -0.084 50 C -0.084 22.383 22.383 -0.084 50 -0.084 c 27.616 0 50.083 22.468 50.083 50.084 C 100.083 77.615 77.615 100.083 50 100.083 z" stroke-linecap="round" />
</g>
<g transform="matrix(0.09774846845209748 0 0 0.09774846845209748 112.99574426628979 251)"  >
<g style=""   >
		<g transform="matrix(1 0 0 1 0.00014231539961429007 -0.00004382115687917576)"  >
<linearGradient id="SVGID_6007_6012" gradientUnits="userSpaceOnUse" gradientTransform="matrix(1 0 0 1 0.00028463079920015844 -0.00008764231381519494)"  x1="0" y1="0" x2="392.001" y2="504">
<stop offset="0%" style="stop-color:#FFDA4E;"/>
<stop offset="32%" style="stop-color:#FBDE8A;"/>
<stop offset="68%" style="stop-color:#D8A517;"/>
<stop offset="100%" style="stop-color:#F6BE21;"/>
</linearGradient>
<path style="stroke: none; stroke-width: 1; stroke-dasharray: none; stroke-linecap: butt; stroke-dashoffset: 0; stroke-linejoin: miter; stroke-miterlimit: 4; fill: url(#SVGID_6007_6012); fill-rule: nonzero; opacity: 1;"  transform=" translate(-196.0006423153996, -251.99995617884312)" d="M 392.001 290.23 c 0 -16.98 -3.27 -33.7 -9.7 -49.7 c 6.54 -29.02 4.17 -54.34 -7.09 -75.25 c -7.89 -14.66 -18.64 -25.08 -31.52 -32.89 c -7.74 -27.63 -18.77 -51.46 -32.81 -70.84 c -23.24 -32.09 -53.98 -49.76 -86.58 -49.76 c -32.59 0 -63.34 17.67 -86.58 49.76 c -1.4 1.93 -2.77 3.95 -4.12 5.99 c -34.51 -16.91 -66.59 -39.21 -95.5 -66.45 c -1.59 -1.51 -4.1 -1.44 -5.62 0.14 L 1.121 33.81 c -0.74 0.77 -1.14 1.8 -1.12 2.87 c 0.03 1.07 0.48 2.08 1.26 2.81 c 32.93 31.04 69.58 56.46 109.07 75.76 c -5.04 14.29 -9.05 29.64 -11.94 45.72 c -18.81 20.17 -30.63 42.2 -35.12 65.51 c -1.81 9.4 -2.44 19.04 -1.94 28.84 c -3.13 11.44 -4.73 23.19 -4.73 34.91 c 0 40.71 18.26 78.62 51.41 106.73 c 22.68 19.23 50.82 32.37 81.43 38.05 c 39.04 26.77 85.08 50.05 136.41 68.75 c 0.45 0.16 0.91 0.24 1.37 0.24 c 1.62 0 3.15 -1 3.75 -2.6 l 15.71 -42.22 c 0.37 -1 0.33 -2.11 -0.12 -3.07 c -0.44 -0.97 -1.26 -1.72 -2.26 -2.09 c -20.94 -7.63 -41.05 -16.18 -60.07 -25.49 c 20.99 -7.03 39.92 -17.62 56.36 -31.57 C 373.741 368.85 392.001 330.94 392.001 290.23 z M 224.301 55.78 c 25.11 0 48.61 20.65 65.24 56.98 c -8.99 -2.06 -18.34 -3.93 -27.94 -5.85 c -26.2 -5.23 -55.03 -11 -86.2 -21.9 C 189.921 65.87 206.751 55.78 224.301 55.78 z M 40.861 62.73 c 12.59 -4.41 21.73 -15.47 23.44 -28.86 c 7.88 6.04 15.95 11.76 24.18 17.15 l -12.1 12.57 c -1.53 1.6 -1.48 4.13 0.11 5.66 c 0.78 0.75 1.78 1.12 2.77 1.12 c 1.05 0 2.1 -0.41 2.89 -1.23 l 13.2 -13.72 c 9.58 5.99 19.38 11.54 29.39 16.64 L 112.291 85 c -1.53 1.59 -1.49 4.12 0.11 5.66 c 0.77 0.74 1.77 1.12 2.77 1.12 c 1.05 0 2.1 -0.41 2.88 -1.23 l 14.21 -14.76 c 2.94 1.42 5.9 2.82 8.88 4.16 c 7.19 3.24 14.27 6.16 21.23 8.81 l -13.7 14.24 c -1.54 1.59 -1.49 4.12 0.1 5.65 c 0.78 0.75 1.78 1.12 2.78 1.12 c 1.05 0 2.09 -0.41 2.88 -1.22 l 16.13 -16.77 c 11.3 4.03 22.28 7.38 32.94 10.27 l -13.91 14.45 c -1.53 1.59 -1.48 4.12 0.11 5.65 c 0.77 0.75 1.77 1.12 2.77 1.12 c 1.05 0 2.1 -0.41 2.88 -1.23 l 17.02 -17.68 c 12.57 3.16 24.66 5.75 36.28 8.11 l -13.59 14.11 c -1.53 1.59 -1.48 4.12 0.11 5.66 c 0.78 0.74 1.77 1.11 2.77 1.11 c 1.05 0 2.1 -0.41 2.89 -1.22 l 17.12 -17.79 c 0.69 0.14 1.39 0.28 2.09 0.42 c 10.55 2.11 20.77 4.15 30.52 6.46 l -10.33 13.63 c -1.34 1.76 -0.99 4.27 0.77 5.6 c 0.72 0.55 1.57 0.81 2.41 0.81 c 1.21 0 2.41 -0.54 3.19 -1.58 l 12.4 -16.35 c 11.18 2.95 21.62 6.4 31.05 10.9 l -9.09 14.39 c -1.18 1.87 -0.62 4.34 1.24 5.52 c 0.67 0.42 1.41 0.62 2.14 0.62 c 1.32 0 2.62 -0.66 3.38 -1.86 l 9.45 -14.96 c 9.2 5.25 17.24 11.79 23.83 20.19 l -8.21 12.99 c -1.18 1.87 -0.62 4.34 1.24 5.52 c 0.67 0.42 1.41 0.62 2.14 0.62 c 1.32 0 2.62 -0.66 3.38 -1.87 l 6.41 -10.14 c 0.76 1.25 1.5 2.51 2.21 3.83 c 8.93 16.59 11.73 36.4 8.35 59.01 c -9.27 -17.84 -21.36 -32.76 -36.05 -44.46 c -23 -18.34 -45.1 -23.19 -75.68 -29.91 c -3.89 -0.86 -7.91 -1.74 -12.1 -2.69 c -54.62 -12.37 -103.33 -26.71 -127.11 -37.43 C 95.641 100.1 67.291 83.05 40.861 62.73 z M 304.991 446.93 l -12.96 34.82 c -66.07 -28.39 -121.4 -64.77 -161.43 -106.39 c -47.2 -49.07 -68.33 -101.41 -59.48 -147.37 c 3.63 -18.85 12.45 -36.88 26.24 -53.73 c -0.89 20.08 0.35 39.76 3.68 58.69 l -16.18 18.67 c -1.44 1.67 -1.26 4.2 0.41 5.64 c 0.75 0.66 1.69 0.98 2.62 0.98 c 1.12 0 2.23 -0.47 3.02 -1.38 l 12.08 -13.95 c 2.18 9.98 4.96 19.73 8.32 29.2 l -14.4 15.26 c -1.52 1.61 -1.44 4.14 0.16 5.66 c 0.78 0.72 1.76 1.09 2.75 1.09 c 1.06 0 2.12 -0.42 2.91 -1.26 l 11.72 -12.42 c 3.45 8.66 7.39 17.07 11.84 25.2 l -14.5 22.95 c -1.18 1.86 -0.62 4.33 1.24 5.51 c 0.67 0.42 1.41 0.62 2.14 0.62 c 1.32 0 2.62 -0.66 3.38 -1.86 l 12.18 -19.28 c 2.97 5.25 7.66 13.09 14.86 22.29 l -11.17 19.89 c -1.08 1.92 -0.4 4.36 1.53 5.44 c 0.62 0.35 1.29 0.52 1.95 0.52 c 1.4 0 2.76 -0.74 3.49 -2.04 l 9.65 -17.19 c 2.08 2.41 4.31 4.88 6.73 7.4 c 4.57 4.75 9.41 9.44 14.48 14.07 l -10.55 18.79 c -1.08 1.93 -0.4 4.37 1.53 5.45 c 0.62 0.35 1.29 0.51 1.96 0.51 c 1.39 0 2.75 -0.73 3.49 -2.04 l 9.68 -17.25 c 6.9 6 14.21 11.89 21.89 17.64 l -6.98 18.75 c -0.77 2.07 0.28 4.37 2.35 5.15 c 0.46 0.17 0.93 0.25 1.4 0.25 c 1.62 0 3.15 -1 3.75 -2.61 l 6.18 -16.62 c 8.08 5.81 16.55 11.47 25.36 16.97 l -7.21 19.36 c -0.77 2.07 0.28 4.37 2.35 5.14 c 0.46 0.17 0.94 0.25 1.4 0.25 c 1.62 0 3.15 -0.99 3.75 -2.6 l 6.66 -17.9 c 9.19 5.53 18.73 10.86 28.58 16 l -6.36 17.1 c -0.77 2.07 0.28 4.38 2.35 5.15 c 0.46 0.17 0.93 0.25 1.4 0.25 c 1.62 0 3.15 -1 3.75 -2.61 l 6.03 -16.22 C 284.731 437.76 294.731 442.46 304.991 446.93 z M 224.301 394.21 h -0.11 c -23.33 -15.58 -43.81 -32.35 -60.65 -49.87 c -15.46 -16.06 -24.42 -32.13 -28.24 -38.96 c -10.33 -18.1 -18.1 -37.69 -23.16 -58.38 c 0.61 -1.13 1.24 -2.25 1.9 -3.35 c 13.96 -23.43 23.33 -48.32 27.85 -73.96 c 2.34 -13.29 5.56 -25.97 9.59 -37.77 c 26.16 8.71 61.42 18.3 99.45 26.91 c 4.2 0.96 8.24 1.84 12.14 2.7 c 16.98 3.73 31.24 6.87 44.4 12.12 c 4.76 24.25 13.86 47.79 27.1 70 c 8.66 14.53 13.05 30.21 13.05 46.58 C 347.621 347.56 292.301 394.21 224.301 394.21 z" stroke-linecap="round" />
</g>
		<g transform="matrix(1 0 0 1 28.305499999999995 38.235000000000014)"  >
<linearGradient id="SVGID_6008_6013" gradientUnits="userSpaceOnUse" gradientTransform="matrix(1 0 0 1 161.19099999999997 214.25)"  x1="0" y1="0" x2="392.001" y2="504">
<stop offset="0%" style="stop-color:#FFDA4E;"/>
<stop offset="32%" style="stop-color:#FBDE8A;"/>
<stop offset="68%" style="stop-color:#D8A517;"/>
<stop offset="100%" style="stop-color:#F6BE21;"/>
</linearGradient>
<path style="stroke: none; stroke-width: 1; stroke-dasharray: none; stroke-linecap: butt; stroke-dashoffset: 0; stroke-linejoin: miter; stroke-miterlimit: 4; fill: url(#SVGID_6008_6013); fill-rule: nonzero; opacity: 1;"  transform=" translate(-224.30599999999998, -290.235)" d="M 224.301 366.22 c 34.8 0 63.12 -34.09 63.12 -75.99 c 0 -41.9 -28.32 -75.98 -63.12 -75.98 s -63.11 34.08 -63.11 75.98 C 161.191 332.13 189.501 366.22 224.301 366.22 z M 194.401 258.45 c 3.19 -4.57 7.96 -7.29 11.98 -7.29 c 1.49 0 2.88 0.37 4.05 1.17 c 1.96 1.35 2.71 3.46 2.99 5 c 0.67 3.68 -0.5 8.12 -3.14 11.89 c -4.37 6.26 -11.71 9.07 -16.02 6.11 c -1.97 -1.34 -2.71 -3.45 -2.99 -4.99 C 190.601 266.66 191.771 262.22 194.401 258.45 z" stroke-linecap="round" />
</g>
</g>
</g>
<g transform="matrix(1 0 0 1 322.55829493038743 252.278)" style=""  ><path fill="url(#CUSTOM_SVGID_186)" opacity="1" d="M-115.84 0.58L-126.14-14.46C-126.55-15.07-127.38-15.90-128.41-15.90L-135.41-15.90C-136.23-15.90-136.85-15.28-136.85-14.46L-136.85 11.50C-136.85 12.32-136.23 12.94-135.41 12.94L-129.23 12.94C-128.41 12.94-127.79 12.32-127.79 11.50L-127.79-3.54L-127.38-3.54L-117.08 11.50C-116.66 12.12-115.84 12.94-114.81 12.94L-107.81 12.94C-106.98 12.94-106.36 12.32-106.36 11.50L-106.36-14.46C-106.36-15.28-106.98-15.90-107.81-15.90L-113.99-15.90C-114.81-15.90-115.43-15.28-115.43-14.46L-115.43 0.58Z"/>
    <linearGradient id="CUSTOM_SVGID_186" gradientUnits="userSpaceOnUse" gradientTransform="matrix(1 0 0 1 -139.94170499776803 -23.278)"  x1="0" y1="0" x2="279.88340999553606" y2="46.556">
      <stop  offset="0" style="stop-color:#147d6c;stop-opacity:undefined"/><stop  offset="1" style="stop-color:#1695a3;stop-opacity:undefined"/>
    </linearGradient>
  <path fill="url(#CUSTOM_SVGID_187)" opacity="1" d="M-85.15 13.77C-75.05 13.77-69.90 8.82-69.90 0.95L-69.90-14.46C-69.90-15.28-70.52-15.90-71.34-15.90L-77.52-15.90C-78.35-15.90-78.97-15.28-78.97-14.46L-78.97 0.99C-78.97 4.70-81.23 6.97-85.15 6.97C-89.06 6.97-91.33 4.70-91.33 0.99L-91.33-14.46C-91.33-15.28-91.94-15.90-92.77-15.90L-98.95-15.90C-99.77-15.90-100.39-15.28-100.39-14.46L-100.39 0.99C-100.39 8.82-95.45 13.77-85.15 13.77Z"/>
    <linearGradient id="CUSTOM_SVGID_187" gradientUnits="userSpaceOnUse" gradientTransform="matrix(1 0 0 1 -139.94170499776803 -23.278)"  x1="0" y1="0" x2="279.88340999553606" y2="46.556">
      <stop  offset="0" style="stop-color:#147d6c;stop-opacity:undefined"/><stop  offset="1" style="stop-color:#1695a3;stop-opacity:undefined"/>
    </linearGradient>
  <path fill="url(#CUSTOM_SVGID_188)" opacity="1" d="M-37.15-14.46C-37.15-15.28-37.77-15.90-38.59-15.90L-64.96-15.90C-65.78-15.90-66.40-15.28-66.40-14.46L-66.40-10.34C-66.40-9.51-65.78-8.89-64.96-8.89L-56.31-8.89L-56.31 11.50C-56.31 12.32-55.69 12.94-54.86 12.94L-48.68 12.94C-47.86 12.94-47.24 12.32-47.24 11.50L-47.24-8.89L-38.59-8.89C-37.77-8.89-37.15-9.51-37.15-10.34Z"/>
    <linearGradient id="CUSTOM_SVGID_188" gradientUnits="userSpaceOnUse" gradientTransform="matrix(1 0 0 1 -139.94170499776803 -23.278)"  x1="0" y1="0" x2="279.88340999553606" y2="46.556">
      <stop  offset="0" style="stop-color:#147d6c;stop-opacity:undefined"/><stop  offset="1" style="stop-color:#1695a3;stop-opacity:undefined"/>
    </linearGradient>
  <path fill="url(#CUSTOM_SVGID_189)" opacity="1" d="M-9.13 0.17C-9.13 0.17-3.57-1.07-3.57-6.42C-3.57-11.57-7.90-15.90-16.96-15.90L-32.00-15.90C-32.82-15.90-33.44-15.28-33.44-14.46L-33.44 11.50C-33.44 12.32-32.82 12.94-32.00 12.94L-25.82 12.94C-24.99 12.94-24.38 12.32-24.38 11.50L-24.38 3.05L-19.02 3.05C-16.75 3.05-15.97 3.88-15.31 5.11L-11.81 11.50C-11.36 12.32-10.78 12.94-9.13 12.94L-2.75 12.94C-1.72 12.94-1.39 12.12-1.72 11.50L-5.22 5.11C-7.28 1.41-9.13 0.58-9.13 0.58ZM-24.38-3.54L-24.38-9.31L-16.96-9.31C-14.28-9.31-13.05-8.07-13.05-6.42C-13.05-4.77-14.28-3.54-16.96-3.54Z"/>
    <linearGradient id="CUSTOM_SVGID_189" gradientUnits="userSpaceOnUse" gradientTransform="matrix(1 0 0 1 -139.94170499776803 -23.278)"  x1="0" y1="0" x2="279.88340999553606" y2="46.556">
      <stop  offset="0" style="stop-color:#147d6c;stop-opacity:undefined"/><stop  offset="1" style="stop-color:#1695a3;stop-opacity:undefined"/>
    </linearGradient>
  <path fill="url(#CUSTOM_SVGID_190)" opacity="1" d="M20.24-14.46C20.24-15.28 19.63-15.90 18.80-15.90L1.91-15.90C1.09-15.90 0.47-15.28 0.47-14.46L0.47-10.34C0.47-9.51 1.09-8.89 1.91-8.89L5.82-8.89L5.82 5.94L1.91 5.94C1.09 5.94 0.47 6.56 0.47 7.38L0.47 11.50C0.47 12.32 1.09 12.94 1.91 12.94L18.80 12.94C19.63 12.94 20.24 12.32 20.24 11.50L20.24 7.38C20.24 6.56 19.63 5.94 18.80 5.94L14.89 5.94L14.89-8.89L18.80-8.89C19.63-8.89 20.24-9.51 20.24-10.34Z"/>
    <linearGradient id="CUSTOM_SVGID_190" gradientUnits="userSpaceOnUse" gradientTransform="matrix(1 0 0 1 -139.94170499776803 -23.278)"  x1="0" y1="0" x2="279.88340999553606" y2="46.556">
      <stop  offset="0" style="stop-color:#147d6c;stop-opacity:undefined"/><stop  offset="1" style="stop-color:#1695a3;stop-opacity:undefined"/>
    </linearGradient>
  <path fill="url(#CUSTOM_SVGID_191)" opacity="1" transform="translate(8.44 0)" d="M47.07 12.94C48.30 12.94 49.08 12.12 49.33 11.50L54.85-2.10L55.26-2.10L55.26 11.50C55.26 12.32 55.88 12.94 56.71 12.94L62.89 12.94C63.71 12.94 64.33 12.32 64.33 11.50L64.33-14.46C64.33-15.28 63.71-15.90 62.89-15.90L54.23-15.90C53.00-15.90 52.22-15.07 51.97-14.46L44.76 3.05L44.35 3.05L37.14-14.46C36.89-15.07 36.11-15.90 34.87-15.90L26.22-15.90C25.39-15.90 24.78-15.28 24.78-14.46L24.78 11.50C24.78 12.32 25.39 12.94 26.22 12.94L32.40 12.94C33.22 12.94 33.84 12.32 33.84 11.50L33.84-2.10L34.25-2.10L39.81 11.50C40.06 12.12 40.84 12.94 42.08 12.94Z"/>
    <linearGradient id="CUSTOM_SVGID_191" gradientUnits="userSpaceOnUse" gradientTransform="matrix(1 0 0 1 -139.94170499776803 -23.278)"  x1="0" y1="0" x2="279.88340999553606" y2="46.556">
      <stop  offset="0" style="stop-color:#147d6c;stop-opacity:undefined"/><stop  offset="1" style="stop-color:#1695a3;stop-opacity:undefined"/>
    </linearGradient>
  <path fill="url(#CUSTOM_SVGID_192)" opacity="1" transform="translate(8.44 0)" d="M98.52-14.46C98.52-15.28 97.91-15.90 97.08-15.90L71.95-15.90C71.13-15.90 70.51-15.28 70.51-14.46L70.51 11.50C70.51 12.32 71.13 12.94 71.95 12.94L97.08 12.94C97.91 12.94 98.52 12.32 98.52 11.50L98.52 7.38C98.52 6.56 97.91 5.94 97.08 5.94L79.57 5.94L79.57 1.82L92.55 1.82C93.37 1.82 93.99 1.20 93.99 0.38L93.99-3.74C93.99-4.57 93.37-5.19 92.55-5.19L79.57-5.19L79.57-8.89L97.08-8.89C97.91-8.89 98.52-9.51 98.52-10.34Z"/>
    <linearGradient id="CUSTOM_SVGID_192" gradientUnits="userSpaceOnUse" gradientTransform="matrix(1 0 0 1 -139.94170499776803 -23.278)"  x1="0" y1="0" x2="279.88340999553606" y2="46.556">
      <stop  offset="0" style="stop-color:#147d6c;stop-opacity:undefined"/><stop  offset="1" style="stop-color:#1695a3;stop-opacity:undefined"/>
    </linearGradient>
  <rect x="21" y="-3.5" width="8.4" height="4.8" rx="2.1" fill="url(#CUSTOM_SVGID_190)"/>
  <text x="-19.16" y="32" fill="url(#CUSTOM_SVGID_190)" font-family="Montserrat, Arial, sans-serif" font-size="20" font-weight="600" letter-spacing="1.1" text-anchor="middle">premium</text>
  </g></svg>
